<svg xmlns="http://www.w3.org/2000/svg" version="1.1" xmlns:xlink="http://www.w3.org/1999/xlink" xmlns:svgjs="http://svgjs.dev/svgjs" width="1000" height="1000" viewBox="0 0 1000 1000"><rect width="1000" height="1000" fill="#000000"></rect><g transform="matrix(0.7,0,0,0.7,149.57576736634593,462.0228057075446)"><svg viewBox="0 0 396 43" data-background-color="#ffffff" preserveAspectRatio="xMidYMid meet" height="108" width="1000" xmlns="http://www.w3.org/2000/svg" xmlns:xlink="http://www.w3.org/1999/xlink"><defs></defs><g id="tight-bounds" transform="matrix(1,0,0,1,0.23999448536369528,0.10078511343360219)"><svg viewBox="0 0 395.52 42.79842977313281" height="42.79842977313281" width="395.52"><g><svg viewBox="0 0 395.52 42.79842977313281" height="42.79842977313281" width="395.52"><g><svg viewBox="0 0 395.52 42.79842977313281" height="42.79842977313281" width="395.52"><g><svg viewBox="0 0 395.52 42.79842977313281" height="42.79842977313281" width="395.52"><g><svg viewBox="0 0 395.52 42.79842977313281" height="42.79842977313281" width="395.52"><g transform="matrix(1,0,0,1,0,0)"><svg width="395.52" viewBox="1.350000023841858 -36.5 392.2699890136719 42.45000076293945" height="42.79842977313281" data-palette-color="#ff0000"><path d="M19.45 5.95L3.65 5.95Q2.45 5.95 1.9 5.4 1.35 4.85 1.35 3.65L1.35 3.65 1.35-2.2Q1.35-2.85 1.53-3.3 1.7-3.75 2.05-4.05L2.05-4.05 7.05-8.25Q4.4-9.05 2.88-10.98 1.35-12.9 1.35-16.5L1.35-16.5 1.35-21.75Q1.35-24 2.1-25.75 2.85-27.5 4.25-28.7L4.25-28.7 10.75-34.15Q12.1-35.25 14.1-35.88 16.1-36.5 18.65-36.5L18.65-36.5 32.65-36.5Q33.85-36.5 34.4-35.95 34.95-35.4 34.95-34.2L34.95-34.2 34.95-28.25Q34.95-27.6 34.77-27.15 34.6-26.7 34.25-26.4L34.25-26.4 29.75-22.65Q32.9-21.95 34.83-20.03 36.75-18.1 36.75-14.05L36.75-14.05 36.75-8.8Q36.75-6.55 36-4.8 35.25-3.05 33.8-1.85L33.8-1.85 27.35 3.55Q25.95 4.7 23.95 5.33 21.95 5.95 19.45 5.95L19.45 5.95ZM10.1 0L25.9 0Q30.7 0 33.48-2.27 36.25-4.55 36.25-8.8L36.25-8.8 36.25-14.05Q36.25-18.25 34.1-20.05 31.95-21.85 28.45-22.35L28.45-22.35 21-23.35Q20.35-23.4 20-23.85 19.65-24.3 19.65-24.95L19.65-24.95Q19.65-25.6 20-26.03 20.35-26.45 21-26.45L21-26.45 32.65-26.45Q33.6-26.45 34.02-26.88 34.45-27.3 34.45-28.25L34.45-28.25 34.45-34.2Q34.45-35.15 34.02-35.58 33.6-36 32.65-36L32.65-36 18.65-36Q13.8-36 11.05-33.73 8.3-31.45 8.3-27.2L8.3-27.2 8.3-21.95Q8.3-17.75 10.43-15.95 12.55-14.15 16.05-13.65L16.05-13.65 23.55-12.6Q24.2-12.55 24.53-12.15 24.85-11.75 24.85-10.9L24.85-10.9Q24.85-10.3 24.53-9.88 24.2-9.45 23.55-9.45L23.55-9.45 10.1-9.45Q9.15-9.45 8.72-9.03 8.3-8.6 8.3-7.65L8.3-7.65 8.3-1.8Q8.3-0.85 8.72-0.43 9.15 0 10.1 0L10.1 0ZM18.85-31.5L29.95-31.5 29.95-31 18.85-31Q16.75-31 15.5-29.85 14.25-28.7 14.25-26.95L14.25-26.95 14.25-22.85Q14.25-21.1 14.95-20.4 15.65-19.7 16.8-19.5L16.8-19.5 27.35-17.35Q28.85-17.05 29.83-16.05 30.8-15.05 30.8-12.45L30.8-12.45 30.8-9.55Q30.8-7.35 29.3-5.93 27.8-4.5 25.25-4.5L25.25-4.5 12.8-4.5 12.8-5 25.25-5Q27.55-5 28.93-6.28 30.3-7.55 30.3-9.55L30.3-9.55 30.3-12.45Q30.3-14.8 29.48-15.68 28.65-16.55 27.25-16.85L27.25-16.85 16.7-19Q15.4-19.25 14.58-20.03 13.75-20.8 13.75-22.85L13.75-22.85 13.75-26.95Q13.75-28.95 15.15-30.23 16.55-31.5 18.85-31.5L18.85-31.5ZM64.2 5.95L64.2 5.95 52 5.95Q45.45 5.95 42.32 2.55 39.2-0.85 39.2-6.25L39.2-6.25 39.2-20.3Q39.2-23.05 40-25.08 40.8-27.1 42.35-28.45L42.35-28.45 48.85-33.9Q50.4-35.2 52.8-35.85 55.2-36.5 58.45-36.5L58.45-36.5 70.65-36.5Q71.85-36.5 72.4-35.95 72.95-35.4 72.95-34.2L72.95-34.2 72.95-28.15Q72.95-27.5 72.77-27.05 72.6-26.6 72.25-26.3L72.25-26.3 65.75-20.9Q65.55-20.7 65.12-20.55 64.7-20.4 64.2-20.4L64.2-20.4 58.05-20.4 58.05-11.95Q58.05-10.9 58.7-10.48 59.35-10.05 60.6-10.05L60.6-10.05 70.65-10.05Q71.85-10.05 72.4-9.5 72.95-8.95 72.95-7.75L72.95-7.75 72.95-1.8Q72.95-1.15 72.77-0.7 72.6-0.25 72.25 0.05L72.25 0.05 65.75 5.45Q65.55 5.65 65.12 5.8 64.7 5.95 64.2 5.95ZM58.45 0L70.65 0Q71.6 0 72.02-0.43 72.45-0.85 72.45-1.8L72.45-1.8 72.45-7.75Q72.45-8.7 72.02-9.13 71.6-9.55 70.65-9.55L70.65-9.55 60.6-9.55Q59.05-9.55 58.3-10.13 57.55-10.7 57.55-11.95L57.55-11.95 57.55-23.85Q57.55-25.1 58.3-25.73 59.05-26.35 60.6-26.35L60.6-26.35 70.65-26.35Q71.6-26.35 72.02-26.78 72.45-27.2 72.45-28.15L72.45-28.15 72.45-34.2Q72.45-35.15 72.02-35.58 71.6-36 70.65-36L70.65-36 58.45-36Q52.2-36 49.17-33.48 46.15-30.95 46.15-25.75L46.15-25.75 46.15-10.2Q46.15-5 49.17-2.5 52.2 0 58.45 0L58.45 0ZM59.55-5L67.9-5 67.9-4.5 59.55-4.5Q54.7-4.5 53.12-6 51.55-7.5 51.55-10.95L51.55-10.95 51.55-24.95Q51.55-28.5 53.15-30 54.75-31.5 59.55-31.5L59.55-31.5 67.9-31.5 67.9-31 59.55-31Q55.15-31 53.6-29.63 52.05-28.25 52.05-24.95L52.05-24.95 52.05-10.95Q52.05-7.7 53.55-6.35 55.05-5 59.55-5L59.55-5ZM88.15-15.15L88.15-15.15 88.15-13.6 107.65-13.6 107.65-15.15Q107.65-16.5 107.42-17.65 107.2-18.8 106.85-19.8L106.85-19.8 103.4-27.95Q102.85-29.25 102.25-30.13 101.65-31 100.25-31L100.25-31 95.35-31Q93.85-31 93.25-30.13 92.65-29.25 92.15-28L92.15-28 88.95-19.8Q88.6-18.8 88.37-17.65 88.15-16.5 88.15-15.15ZM93.8-17.9L96.15-25.5Q96.35-25.95 96.57-26.15 96.8-26.35 97.1-26.35L97.1-26.35 98.35-26.35Q98.65-26.35 98.87-26.15 99.1-25.95 99.3-25.5L99.3-25.5 101.65-17.9 93.8-17.9ZM108.15-4.5L107.65-4.5 107.65-13.1 88.15-13.1 88.15-4.5 87.65-4.5 87.65-15.15Q87.65-16.55 87.87-17.73 88.1-18.9 88.5-20L88.5-20 91.7-28.2Q92.25-29.6 92.95-30.55 93.65-31.5 95.35-31.5L95.35-31.5 100.25-31.5Q101.9-31.5 102.57-30.55 103.25-29.6 103.85-28.15L103.85-28.15 107.3-20Q107.7-18.9 107.92-17.73 108.15-16.55 108.15-15.15L108.15-15.15 108.15-4.5ZM93.3-1.8L93.3-1.8 93.3-8.8 102.15-8.8 102.15-1.8Q102.15-0.85 102.62-0.43 103.1 0 104.1 0L104.1 0 111.65 0Q112.6 0 113.02-0.43 113.45-0.85 113.45-1.8L113.45-1.8 113.45-15Q113.45-16.5 112.97-18.45 112.5-20.4 111.5-23L111.5-23 107.15-34.35Q106.85-35.2 106.22-35.6 105.6-36 104.65-36L104.65-36 91.2-36Q90.2-36 89.57-35.6 88.95-35.2 88.65-34.35L88.65-34.35 84.3-23Q83.3-20.4 82.82-18.45 82.35-16.5 82.35-15L82.35-15 82.35-1.8Q82.35-0.85 82.77-0.43 83.2 0 84.15 0L84.15 0 91.5 0Q92.45 0 92.87-0.43 93.3-0.85 93.3-1.8ZM93.1 0.05L86.6 5.45Q86.4 5.65 85.97 5.8 85.55 5.95 85.05 5.95L85.05 5.95 77.7 5.95Q76.5 5.95 75.95 5.4 75.4 4.85 75.4 3.65L75.4 3.65 75.4-9.55Q75.4-11.1 75.87-13.08 76.35-15.05 77.4-17.75L77.4-17.75 81.7-29.05Q81.85-29.5 82.07-29.83 82.3-30.15 82.55-30.4L82.55-30.4 82.6-30.45 89-35.8Q89.4-36.15 89.95-36.33 90.5-36.5 91.2-36.5L91.2-36.5 104.65-36.5Q105.8-36.5 106.52-36.02 107.25-35.55 107.6-34.55L107.6-34.55 111.95-23.2Q113-20.5 113.47-18.53 113.95-16.55 113.95-15L113.95-15 113.95-1.8Q113.95-1.15 113.77-0.7 113.6-0.25 113.25 0.05L113.25 0.05 106.75 5.45Q106.55 5.65 106.12 5.8 105.7 5.95 105.2 5.95L105.2 5.95 97.65 5.95Q96.4 5.95 95.8 5.38 95.2 4.8 95.2 3.65L95.2 3.65 95.2-2.85 93.8-2.85 93.8-1.8Q93.8-1.15 93.62-0.7 93.45-0.25 93.1 0.05L93.1 0.05ZM131.19-31.1L131.19-31.1 149.59-10.4 149.59-31.5 150.09-31.5 150.09-4.5 149.59-4.5 149.59-9.65 130.69-30.85Q130.64-30.9 130.57-30.95 130.49-31 130.44-31L130.44-31Q130.39-31 130.37-30.95 130.34-30.9 130.34-30.85L130.34-30.85 130.34-4.5 129.84-4.5 129.84-30.95Q129.84-31.25 130.04-31.4 130.24-31.55 130.44-31.55L130.44-31.55Q130.64-31.55 130.79-31.45 130.94-31.35 131.19-31.1ZM126.39 0L133.89 0Q134.84 0 135.27-0.43 135.69-0.85 135.69-1.8L135.69-1.8 135.69-18.3 144.24-7.95 144.24-1.8Q144.24-0.85 144.67-0.43 145.09 0 146.04 0L146.04 0 153.54 0Q154.49 0 154.92-0.43 155.34-0.85 155.34-1.8L155.34-1.8 155.34-34.2Q155.34-35.15 154.92-35.58 154.49-36 153.54-36L153.54-36 146.04-36Q145.09-36 144.67-35.58 144.24-35.15 144.24-34.2L144.24-34.2 144.24-23.55 134.54-34.65Q133.89-35.4 133.22-35.7 132.54-36 131.59-36L131.59-36 126.39-36Q125.44-36 125.02-35.58 124.59-35.15 124.59-34.2L124.59-34.2 124.59-1.8Q124.59-0.85 125.02-0.43 125.44 0 126.39 0L126.39 0ZM135.49 0.05L135.49 0.05 128.99 5.45Q128.79 5.65 128.37 5.8 127.94 5.95 127.44 5.95L127.44 5.95 119.94 5.95Q118.74 5.95 118.19 5.4 117.64 4.85 117.64 3.65L117.64 3.65 117.64-28.75Q117.64-29.4 117.82-29.85 117.99-30.3 118.34-30.6L118.34-30.6 124.79-36.05Q125.04-36.25 125.47-36.38 125.89-36.5 126.39-36.5L126.39-36.5 131.59-36.5Q132.69-36.5 133.44-36.15 134.19-35.8 134.94-35L134.94-35 138.39-31 144.44-36.05Q144.69-36.25 145.12-36.38 145.54-36.5 146.04-36.5L146.04-36.5 153.54-36.5Q154.74-36.5 155.29-35.95 155.84-35.4 155.84-34.2L155.84-34.2 155.84-1.8Q155.84-1.15 155.67-0.7 155.49-0.25 155.14 0.05L155.14 0.05 148.64 5.45Q148.44 5.65 148.02 5.8 147.59 5.95 147.09 5.95L147.09 5.95 139.59 5.95Q138.39 5.95 137.84 5.4 137.29 4.85 137.29 3.65L137.29 3.65 137.29-2.3 136.19-3.65 136.19-1.8Q136.19-1.15 136.02-0.7 135.84-0.25 135.49 0.05ZM186.09-11.3L186.09-11.3 178.89-11.3Q177.29-11.3 176.81-11.75 176.34-12.2 176.29-13.85L176.29-13.85 175.89-28.45Q175.84-29.4 175.96-29.88 176.09-30.35 176.44-30.65L176.44-30.65 182.94-36.1Q183.19-36.3 183.66-36.4 184.14-36.5 184.84-36.5L184.84-36.5 193.09-36.5Q194.69-36.5 195.14-36.05 195.59-35.6 195.54-33.95L195.54-33.95 195.14-19.25Q195.09-18.4 194.94-17.93 194.79-17.45 194.49-17.15L194.49-17.15 188.04-11.75Q187.74-11.55 187.29-11.43 186.84-11.3 186.09-11.3ZM185.34-17.25L192.54-17.25Q193.84-17.25 194.21-17.63 194.59-18 194.64-19.3L194.64-19.3 195.04-33.95Q195.09-35.25 194.71-35.63 194.34-36 193.09-36L193.09-36 184.84-36Q183.54-36 183.16-35.63 182.79-35.25 182.84-33.95L182.84-33.95 183.24-19.3Q183.29-18 183.66-17.63 184.04-17.25 185.34-17.25L185.34-17.25ZM188.69-21.75L188.69-31.5 189.19-31.5 189.19-21.75 188.69-21.75ZM212.89-31.1L212.89-31.1 231.29-10.4 231.29-31.5 231.79-31.5 231.79-4.5 231.29-4.5 231.29-9.65 212.39-30.85Q212.34-30.9 212.26-30.95 212.19-31 212.14-31L212.14-31Q212.09-31 212.06-30.95 212.04-30.9 212.04-30.85L212.04-30.85 212.04-4.5 211.54-4.5 211.54-30.95Q211.54-31.25 211.74-31.4 211.94-31.55 212.14-31.55L212.14-31.55Q212.34-31.55 212.49-31.45 212.64-31.35 212.89-31.1ZM208.09 0L215.59 0Q216.54 0 216.96-0.43 217.39-0.85 217.39-1.8L217.39-1.8 217.39-18.3 225.94-7.95 225.94-1.8Q225.94-0.85 226.36-0.43 226.79 0 227.74 0L227.74 0 235.24 0Q236.19 0 236.61-0.43 237.04-0.85 237.04-1.8L237.04-1.8 237.04-34.2Q237.04-35.15 236.61-35.58 236.19-36 235.24-36L235.24-36 227.74-36Q226.79-36 226.36-35.58 225.94-35.15 225.94-34.2L225.94-34.2 225.94-23.55 216.24-34.65Q215.59-35.4 214.91-35.7 214.24-36 213.29-36L213.29-36 208.09-36Q207.14-36 206.71-35.58 206.29-35.15 206.29-34.2L206.29-34.2 206.29-1.8Q206.29-0.85 206.71-0.43 207.14 0 208.09 0L208.09 0ZM217.19 0.05L217.19 0.05 210.69 5.45Q210.49 5.65 210.06 5.8 209.64 5.95 209.14 5.95L209.14 5.95 201.64 5.95Q200.44 5.95 199.89 5.4 199.34 4.85 199.34 3.65L199.34 3.65 199.34-28.75Q199.34-29.4 199.51-29.85 199.69-30.3 200.04-30.6L200.04-30.6 206.49-36.05Q206.74-36.25 207.16-36.38 207.59-36.5 208.09-36.5L208.09-36.5 213.29-36.5Q214.39-36.5 215.14-36.15 215.89-35.8 216.64-35L216.64-35 220.09-31 226.14-36.05Q226.39-36.25 226.81-36.38 227.24-36.5 227.74-36.5L227.74-36.5 235.24-36.5Q236.44-36.5 236.99-35.95 237.54-35.4 237.54-34.2L237.54-34.2 237.54-1.8Q237.54-1.15 237.36-0.7 237.19-0.25 236.84 0.05L236.84 0.05 230.34 5.45Q230.14 5.65 229.71 5.8 229.29 5.95 228.79 5.95L228.79 5.95 221.29 5.95Q220.09 5.95 219.54 5.4 218.99 4.85 218.99 3.65L218.99 3.65 218.99-2.3 217.89-3.65 217.89-1.8Q217.89-1.15 217.71-0.7 217.54-0.25 217.19 0.05ZM251.53-11.3L251.53-11.3 244.33-11.3Q242.73-11.3 242.26-11.75 241.78-12.2 241.73-13.85L241.73-13.85 241.33-28.45Q241.28-29.4 241.41-29.88 241.53-30.35 241.88-30.65L241.88-30.65 248.38-36.1Q248.63-36.3 249.11-36.4 249.58-36.5 250.28-36.5L250.28-36.5 258.53-36.5Q260.13-36.5 260.58-36.05 261.03-35.6 260.98-33.95L260.98-33.95 260.58-19.25Q260.53-18.4 260.38-17.93 260.23-17.45 259.93-17.15L259.93-17.15 253.48-11.75Q253.18-11.55 252.73-11.43 252.28-11.3 251.53-11.3ZM250.78-17.25L257.98-17.25Q259.28-17.25 259.66-17.63 260.03-18 260.08-19.3L260.08-19.3 260.48-33.95Q260.53-35.25 260.16-35.63 259.78-36 258.53-36L258.53-36 250.28-36Q248.98-36 248.61-35.63 248.23-35.25 248.28-33.95L248.28-33.95 248.68-19.3Q248.73-18 249.11-17.63 249.48-17.25 250.78-17.25L250.78-17.25ZM254.13-21.75L254.13-31.5 254.63-31.5 254.63-21.75 254.13-21.75ZM306.53 5.95L306.53 5.95 283.33 5.95Q282.13 5.95 281.58 5.4 281.03 4.85 281.03 3.65L281.03 3.65 281.03-28.75Q281.03-29.4 281.2-29.85 281.38-30.3 281.73-30.6L281.73-30.6 288.18-36.05Q288.43-36.25 288.85-36.38 289.28-36.5 289.78-36.5L289.78-36.5 312.98-36.5Q314.18-36.5 314.73-35.95 315.28-35.4 315.28-34.2L315.28-34.2 315.28-28.35Q315.28-27.7 315.1-27.25 314.93-26.8 314.58-26.5L314.58-26.5 310.28-22.95Q310.78-22.7 311-22.2 311.23-21.7 311.23-20.9L311.23-20.9 311.23-15.55Q311.23-14.9 311.05-14.45 310.88-14 310.53-13.7L310.53-13.7 306.08-9.95 312.98-9.95Q314.18-9.95 314.73-9.4 315.28-8.85 315.28-7.65L315.28-7.65 315.28-1.8Q315.28-1.15 315.1-0.7 314.93-0.25 314.58 0.05L314.58 0.05 308.08 5.45Q307.88 5.65 307.45 5.8 307.03 5.95 306.53 5.95ZM289.78 0L312.98 0Q313.93 0 314.35-0.43 314.78-0.85 314.78-1.8L314.78-1.8 314.78-7.65Q314.78-8.6 314.35-9.03 313.93-9.45 312.98-9.45L312.98-9.45 299.18-9.45 299.18-13.75 308.93-13.75Q309.88-13.75 310.3-14.18 310.73-14.6 310.73-15.55L310.73-15.55 310.73-20.9Q310.73-21.85 310.3-22.28 309.88-22.7 308.93-22.7L308.93-22.7 299.18-22.7 299.18-26.55 312.98-26.55Q313.93-26.55 314.35-26.98 314.78-27.4 314.78-28.35L314.78-28.35 314.78-34.2Q314.78-35.15 314.35-35.58 313.93-36 312.98-36L312.98-36 289.78-36Q288.83-36 288.4-35.58 287.98-35.15 287.98-34.2L287.98-34.2 287.98-1.8Q287.98-0.85 288.4-0.43 288.83 0 289.78 0L289.78 0ZM293.93-5L310.28-5 310.28-4.5 293.43-4.5 293.43-31.5 310.28-31.5 310.28-31 293.93-31 293.93-18.45 306.23-18.45 306.23-17.95 293.93-17.95 293.93-5ZM330.73-15.15L330.73-15.15 330.73-13.6 350.23-13.6 350.23-15.15Q350.23-16.5 350-17.65 349.78-18.8 349.43-19.8L349.43-19.8 345.98-27.95Q345.43-29.25 344.83-30.13 344.23-31 342.83-31L342.83-31 337.93-31Q336.43-31 335.83-30.13 335.23-29.25 334.73-28L334.73-28 331.53-19.8Q331.18-18.8 330.95-17.65 330.73-16.5 330.73-15.15ZM336.38-17.9L338.73-25.5Q338.93-25.95 339.15-26.15 339.38-26.35 339.68-26.35L339.68-26.35 340.93-26.35Q341.23-26.35 341.45-26.15 341.68-25.95 341.88-25.5L341.88-25.5 344.23-17.9 336.38-17.9ZM350.73-4.5L350.23-4.5 350.23-13.1 330.73-13.1 330.73-4.5 330.23-4.5 330.23-15.15Q330.23-16.55 330.45-17.73 330.68-18.9 331.08-20L331.08-20 334.28-28.2Q334.83-29.6 335.53-30.55 336.23-31.5 337.93-31.5L337.93-31.5 342.83-31.5Q344.48-31.5 345.15-30.55 345.83-29.6 346.43-28.15L346.43-28.15 349.88-20Q350.28-18.9 350.5-17.73 350.73-16.55 350.73-15.15L350.73-15.15 350.73-4.5ZM335.88-1.8L335.88-1.8 335.88-8.8 344.73-8.8 344.73-1.8Q344.73-0.85 345.2-0.43 345.68 0 346.68 0L346.68 0 354.23 0Q355.18 0 355.6-0.43 356.03-0.85 356.03-1.8L356.03-1.8 356.03-15Q356.03-16.5 355.55-18.45 355.08-20.4 354.08-23L354.08-23 349.73-34.35Q349.43-35.2 348.8-35.6 348.18-36 347.23-36L347.23-36 333.78-36Q332.78-36 332.15-35.6 331.53-35.2 331.23-34.35L331.23-34.35 326.88-23Q325.88-20.4 325.4-18.45 324.93-16.5 324.93-15L324.93-15 324.93-1.8Q324.93-0.85 325.35-0.43 325.78 0 326.73 0L326.73 0 334.08 0Q335.03 0 335.45-0.43 335.88-0.85 335.88-1.8ZM335.68 0.05L329.18 5.45Q328.98 5.65 328.55 5.8 328.13 5.95 327.63 5.95L327.63 5.95 320.28 5.95Q319.08 5.95 318.53 5.4 317.98 4.85 317.98 3.65L317.98 3.65 317.98-9.55Q317.98-11.1 318.45-13.08 318.93-15.05 319.98-17.75L319.98-17.75 324.28-29.05Q324.43-29.5 324.65-29.83 324.88-30.15 325.13-30.4L325.13-30.4 325.18-30.45 331.58-35.8Q331.98-36.15 332.53-36.33 333.08-36.5 333.78-36.5L333.78-36.5 347.23-36.5Q348.38-36.5 349.1-36.02 349.83-35.55 350.18-34.55L350.18-34.55 354.53-23.2Q355.58-20.5 356.05-18.53 356.53-16.55 356.53-15L356.53-15 356.53-1.8Q356.53-1.15 356.35-0.7 356.18-0.25 355.83 0.05L355.83 0.05 349.33 5.45Q349.13 5.65 348.7 5.8 348.28 5.95 347.78 5.95L347.78 5.95 340.23 5.95Q338.98 5.95 338.38 5.38 337.78 4.8 337.78 3.65L337.78 3.65 337.78-2.85 336.38-2.85 336.38-1.8Q336.38-1.15 336.2-0.7 336.03-0.25 335.68 0.05L335.68 0.05ZM375.72 5.95L375.72 5.95 367.62 5.95Q366.42 5.95 365.87 5.4 365.32 4.85 365.32 3.65L365.32 3.65 365.32-20.4 358.47-20.4Q357.27-20.4 356.72-20.95 356.17-21.5 356.17-22.7L356.17-22.7 356.17-28.75Q356.17-29.4 356.35-29.85 356.52-30.3 356.87-30.6L356.87-30.6 363.32-36.05Q363.57-36.25 364-36.38 364.42-36.5 364.92-36.5L364.92-36.5 391.32-36.5Q392.52-36.5 393.07-35.95 393.62-35.4 393.62-34.2L393.62-34.2 393.62-28.15Q393.62-27.5 393.45-27.05 393.27-26.6 392.92-26.3L392.92-26.3 386.42-20.9Q386.22-20.7 385.8-20.55 385.37-20.4 384.87-20.4L384.87-20.4 384.47-20.4 384.47-1.8Q384.47-1.15 384.3-0.7 384.12-0.25 383.77 0.05L383.77 0.05 377.27 5.45Q377.07 5.65 376.65 5.8 376.22 5.95 375.72 5.95ZM374.07 0L382.17 0Q383.12 0 383.55-0.43 383.97-0.85 383.97-1.8L383.97-1.8 383.97-26.35 391.32-26.35Q392.27-26.35 392.7-26.78 393.12-27.2 393.12-28.15L393.12-28.15 393.12-34.2Q393.12-35.15 392.7-35.58 392.27-36 391.32-36L391.32-36 364.92-36Q363.97-36 363.55-35.58 363.12-35.15 363.12-34.2L363.12-34.2 363.12-28.15Q363.12-27.2 363.55-26.78 363.97-26.35 364.92-26.35L364.92-26.35 372.27-26.35 372.27-1.8Q372.27-0.85 372.7-0.43 373.12 0 374.07 0L374.07 0ZM378.37-4.5L377.87-4.5 377.87-31 367.62-31 367.62-31.5 388.62-31.5 388.62-31 378.37-31 378.37-4.5Z" opacity="1" transform="matrix(1,0,0,1,0,0)" fill="#ffffff" class="undefined-text-0" data-fill-palette-color="primary" id="text-0"></path></svg></g></svg></g></svg></g></svg></g></svg></g></svg><rect width="395.52" height="42.79842977313281" fill="none" stroke="none" visibility="hidden"></rect></g></svg></g></svg>